<mxfile host="app.diagrams.net" modified="2022-03-31T08:22:55.507Z" agent="5.0 (Macintosh; Intel Mac OS X 10_15_7) AppleWebKit/537.36 (KHTML, like Gecko) Chrome/99.0.4844.83 Safari/537.36" etag="LQ7RIjtxJYO-pkt-D2ge" version="17.2.4" type="github">
  <diagram id="ux0jwftiJ_EdCIhOXbJE" name="Page-1">
    <mxGraphModel dx="102" dy="474" grid="1" gridSize="10" guides="1" tooltips="1" connect="1" arrows="1" fold="1" page="1" pageScale="1" pageWidth="827" pageHeight="1169" math="0" shadow="0">
      <root>
        <mxCell id="0" />
        <mxCell id="1" parent="0" />
        <mxCell id="txF12JI0B_JZpHMLiGdl-1" value="" style="rounded=0;whiteSpace=wrap;html=1;fontSize=16;fillColor=#f9f7ed;strokeColor=#36393d;" vertex="1" parent="1">
          <mxGeometry x="860" width="280" height="335" as="geometry" />
        </mxCell>
        <mxCell id="txF12JI0B_JZpHMLiGdl-2" value="&lt;span style=&quot;color: rgb(51 , 51 , 51) ; font-family: &amp;#34;helvetica neue&amp;#34; , &amp;#34;helvetica&amp;#34; , &amp;#34;arial&amp;#34; , sans-serif ; font-size: 16px ; text-align: left&quot;&gt;creator_trx_&lt;/span&gt;&lt;span style=&quot;color: rgb(51 , 51 , 51) ; font-family: &amp;#34;helvetica neue&amp;#34; , &amp;#34;helvetica&amp;#34; , &amp;#34;arial&amp;#34; , sans-serif ; font-size: 16px ; text-align: left&quot;&gt;id = &lt;/span&gt;&lt;span style=&quot;font-family: &amp;#34;helvetica neue&amp;#34; , &amp;#34;helvetica&amp;#34; , &amp;#34;arial&amp;#34; , sans-serif ; font-size: 16px ; text-align: left&quot;&gt;&lt;font color=&quot;#ff3333&quot;&gt;52&lt;/font&gt;&lt;/span&gt;&lt;span style=&quot;color: rgb(51 , 51 , 51) ; font-family: &amp;#34;helvetica neue&amp;#34; , &amp;#34;helvetica&amp;#34; , &amp;#34;arial&amp;#34; , sans-serif ; font-size: 16px ; text-align: left&quot;&gt;&amp;nbsp;&lt;/span&gt;" style="rounded=1;whiteSpace=wrap;html=1;fontSize=16;fillColor=#dae8fc;strokeColor=#6c8ebf;labelBackgroundColor=none;" vertex="1" parent="1">
          <mxGeometry x="920" y="72.5" width="160" height="60" as="geometry" />
        </mxCell>
        <mxCell id="txF12JI0B_JZpHMLiGdl-3" value="&lt;span style=&quot;color: rgb(51 , 51 , 51) ; font-family: &amp;#34;helvetica neue&amp;#34; , &amp;#34;helvetica&amp;#34; , &amp;#34;arial&amp;#34; , sans-serif ; font-size: 16px ; text-align: left&quot;&gt;m_&lt;/span&gt;&lt;span style=&quot;color: rgb(51 , 51 , 51) ; font-family: &amp;#34;helvetica neue&amp;#34; , &amp;#34;helvetica&amp;#34; , &amp;#34;arial&amp;#34; , sans-serif ; font-size: 16px ; text-align: left&quot;&gt;id&lt;/span&gt;&lt;span style=&quot;color: rgb(51 , 51 , 51) ; font-family: &amp;#34;helvetica neue&amp;#34; , &amp;#34;helvetica&amp;#34; , &amp;#34;arial&amp;#34; , sans-serif ; font-size: 16px ; text-align: left&quot;&gt;s = [&lt;/span&gt;&lt;span style=&quot;font-family: &amp;#34;helvetica neue&amp;#34; , &amp;#34;helvetica&amp;#34; , &amp;#34;arial&amp;#34; , sans-serif ; font-size: 16px ; text-align: left&quot;&gt;&lt;font color=&quot;#ff0000&quot;&gt;52&lt;/font&gt;&lt;/span&gt;&lt;span style=&quot;color: rgb(51 , 51 , 51) ; font-family: &amp;#34;helvetica neue&amp;#34; , &amp;#34;helvetica&amp;#34; , &amp;#34;arial&amp;#34; , sans-serif ; font-size: 16px ; text-align: left&quot;&gt;]&lt;br style=&quot;font-size: 16px&quot;&gt;&lt;/span&gt;" style="rounded=1;whiteSpace=wrap;html=1;fontSize=16;fillColor=#ffe6cc;strokeColor=#d79b00;labelBackgroundColor=none;" vertex="1" parent="1">
          <mxGeometry x="920" y="132.5" width="160" height="60" as="geometry" />
        </mxCell>
        <mxCell id="txF12JI0B_JZpHMLiGdl-4" value="&lt;span style=&quot;color: rgb(51 , 51 , 51) ; font-family: &amp;#34;helvetica neue&amp;#34; , &amp;#34;helvetica&amp;#34; , &amp;#34;arial&amp;#34; , sans-serif ; font-size: 16px ; text-align: left&quot;&gt;min_trx_&lt;/span&gt;&lt;span style=&quot;color: rgb(51 , 51 , 51) ; font-family: &amp;#34;helvetica neue&amp;#34; , &amp;#34;helvetica&amp;#34; , &amp;#34;arial&amp;#34; , sans-serif ; font-size: 16px ; text-align: left&quot;&gt;id = &lt;/span&gt;&lt;span style=&quot;font-family: &amp;#34;helvetica neue&amp;#34; , &amp;#34;helvetica&amp;#34; , &amp;#34;arial&amp;#34; , sans-serif ; font-size: 16px ; text-align: left&quot;&gt;&lt;font color=&quot;#ff0000&quot;&gt;&lt;b&gt;52&lt;/b&gt;&lt;/font&gt;&lt;/span&gt;" style="rounded=1;whiteSpace=wrap;html=1;fontSize=16;fillColor=#d5e8d4;strokeColor=#82b366;labelBackgroundColor=none;" vertex="1" parent="1">
          <mxGeometry x="920" y="192.5" width="160" height="60" as="geometry" />
        </mxCell>
        <mxCell id="txF12JI0B_JZpHMLiGdl-5" value="&lt;span style=&quot;color: rgb(51 , 51 , 51) ; font-family: &amp;quot;helvetica neue&amp;quot; , &amp;quot;helvetica&amp;quot; , &amp;quot;arial&amp;quot; , sans-serif ; font-size: 16px ; text-align: left&quot;&gt;max_trx_&lt;/span&gt;&lt;span style=&quot;color: rgb(51 , 51 , 51) ; font-family: &amp;quot;helvetica neue&amp;quot; , &amp;quot;helvetica&amp;quot; , &amp;quot;arial&amp;quot; , sans-serif ; font-size: 16px ; text-align: left&quot;&gt;id = 53&lt;/span&gt;" style="rounded=1;whiteSpace=wrap;html=1;fontSize=16;fillColor=#e1d5e7;strokeColor=#9673a6;labelBackgroundColor=none;" vertex="1" parent="1">
          <mxGeometry x="920" y="252.5" width="160" height="60" as="geometry" />
        </mxCell>
        <mxCell id="txF12JI0B_JZpHMLiGdl-6" value="事务 B 第三次读取数据&lt;br&gt;创建的 Read View" style="text;html=1;align=center;verticalAlign=middle;resizable=0;points=[];autosize=1;strokeColor=none;fontSize=16;" vertex="1" parent="1">
          <mxGeometry x="910" y="17.5" width="180" height="40" as="geometry" />
        </mxCell>
        <mxCell id="txF12JI0B_JZpHMLiGdl-8" value="" style="rounded=0;whiteSpace=wrap;html=1;fontSize=16;fillColor=#f9f7ed;strokeColor=#36393d;" vertex="1" parent="1">
          <mxGeometry x="1200" y="40" width="565" height="240" as="geometry" />
        </mxCell>
        <mxCell id="txF12JI0B_JZpHMLiGdl-9" value="2" style="rounded=0;whiteSpace=wrap;html=1;fontSize=16;fillColor=#ffe6cc;strokeColor=#d79b00;" vertex="1" parent="1">
          <mxGeometry x="1290" y="125" width="80" height="40" as="geometry" />
        </mxCell>
        <mxCell id="txF12JI0B_JZpHMLiGdl-10" value="小林" style="rounded=0;whiteSpace=wrap;html=1;fontSize=16;fillColor=#ffe6cc;strokeColor=#d79b00;" vertex="1" parent="1">
          <mxGeometry x="1370" y="125" width="80" height="40" as="geometry" />
        </mxCell>
        <mxCell id="txF12JI0B_JZpHMLiGdl-11" value="2000000" style="rounded=0;whiteSpace=wrap;html=1;fontSize=16;fillColor=#ffe6cc;strokeColor=#d79b00;" vertex="1" parent="1">
          <mxGeometry x="1450" y="125" width="80" height="40" as="geometry" />
        </mxCell>
        <mxCell id="txF12JI0B_JZpHMLiGdl-12" value="&lt;font color=&quot;#ff3333&quot;&gt;51&lt;/font&gt;" style="rounded=0;whiteSpace=wrap;html=1;fontSize=16;fillColor=#f5f5f5;strokeColor=#666666;fontColor=#333333;" vertex="1" parent="1">
          <mxGeometry x="1530" y="125" width="80" height="40" as="geometry" />
        </mxCell>
        <mxCell id="txF12JI0B_JZpHMLiGdl-13" value="" style="rounded=0;whiteSpace=wrap;html=1;fontSize=16;fillColor=#f5f5f5;strokeColor=#666666;fontColor=#333333;" vertex="1" parent="1">
          <mxGeometry x="1610" y="125" width="80" height="40" as="geometry" />
        </mxCell>
        <mxCell id="txF12JI0B_JZpHMLiGdl-14" value="id" style="text;html=1;align=center;verticalAlign=middle;resizable=0;points=[];autosize=1;strokeColor=none;fontSize=16;" vertex="1" parent="1">
          <mxGeometry x="1315" y="105" width="30" height="20" as="geometry" />
        </mxCell>
        <mxCell id="txF12JI0B_JZpHMLiGdl-15" value="name" style="text;html=1;align=center;verticalAlign=middle;resizable=0;points=[];autosize=1;strokeColor=none;fontSize=16;" vertex="1" parent="1">
          <mxGeometry x="1380" y="105" width="60" height="20" as="geometry" />
        </mxCell>
        <mxCell id="txF12JI0B_JZpHMLiGdl-16" value="balance" style="text;html=1;align=center;verticalAlign=middle;resizable=0;points=[];autosize=1;strokeColor=none;fontSize=16;" vertex="1" parent="1">
          <mxGeometry x="1455" y="105" width="70" height="20" as="geometry" />
        </mxCell>
        <mxCell id="txF12JI0B_JZpHMLiGdl-17" value="trx_id" style="text;html=1;align=center;verticalAlign=middle;resizable=0;points=[];autosize=1;strokeColor=none;fontSize=16;" vertex="1" parent="1">
          <mxGeometry x="1545" y="105" width="50" height="20" as="geometry" />
        </mxCell>
        <mxCell id="txF12JI0B_JZpHMLiGdl-18" value="roll_pointer" style="text;html=1;align=center;verticalAlign=middle;resizable=0;points=[];autosize=1;strokeColor=none;fontSize=16;" vertex="1" parent="1">
          <mxGeometry x="1610" y="105" width="90" height="20" as="geometry" />
        </mxCell>
        <mxCell id="txF12JI0B_JZpHMLiGdl-19" style="edgeStyle=orthogonalEdgeStyle;rounded=0;orthogonalLoop=1;jettySize=auto;html=1;entryX=0;entryY=0.5;entryDx=0;entryDy=0;" edge="1" parent="1" source="txF12JI0B_JZpHMLiGdl-20" target="txF12JI0B_JZpHMLiGdl-22">
          <mxGeometry relative="1" as="geometry">
            <Array as="points">
              <mxPoint x="1650" y="182.5" />
              <mxPoint x="1270" y="182.5" />
              <mxPoint x="1270" y="232.5" />
            </Array>
          </mxGeometry>
        </mxCell>
        <mxCell id="txF12JI0B_JZpHMLiGdl-20" value="" style="ellipse;whiteSpace=wrap;html=1;aspect=fixed;fontSize=16;" vertex="1" parent="1">
          <mxGeometry x="1645" y="140" width="10" height="10" as="geometry" />
        </mxCell>
        <mxCell id="txF12JI0B_JZpHMLiGdl-21" value="记录的字段" style="text;html=1;align=center;verticalAlign=middle;resizable=0;points=[];autosize=1;strokeColor=none;fontSize=16;" vertex="1" parent="1">
          <mxGeometry x="1440" y="60" width="100" height="20" as="geometry" />
        </mxCell>
        <mxCell id="txF12JI0B_JZpHMLiGdl-22" value="1" style="rounded=0;whiteSpace=wrap;html=1;fontSize=16;fillColor=#dae8fc;strokeColor=#6c8ebf;" vertex="1" parent="1">
          <mxGeometry x="1290" y="212.5" width="80" height="40" as="geometry" />
        </mxCell>
        <mxCell id="txF12JI0B_JZpHMLiGdl-23" value="小林" style="rounded=0;whiteSpace=wrap;html=1;fontSize=16;fillColor=#dae8fc;strokeColor=#6c8ebf;" vertex="1" parent="1">
          <mxGeometry x="1370" y="212.5" width="80" height="40" as="geometry" />
        </mxCell>
        <mxCell id="txF12JI0B_JZpHMLiGdl-24" value="1000000" style="rounded=0;whiteSpace=wrap;html=1;fontSize=16;fillColor=#dae8fc;strokeColor=#6c8ebf;" vertex="1" parent="1">
          <mxGeometry x="1450" y="212.5" width="80" height="40" as="geometry" />
        </mxCell>
        <mxCell id="txF12JI0B_JZpHMLiGdl-25" value="&lt;font color=&quot;#ff3333&quot;&gt;50&lt;/font&gt;" style="rounded=0;whiteSpace=wrap;html=1;fontSize=16;fillColor=#f5f5f5;strokeColor=#666666;fontColor=#333333;" vertex="1" parent="1">
          <mxGeometry x="1530" y="212.5" width="80" height="40" as="geometry" />
        </mxCell>
        <mxCell id="txF12JI0B_JZpHMLiGdl-26" value="" style="rounded=0;whiteSpace=wrap;html=1;fontSize=16;fillColor=#f5f5f5;strokeColor=#666666;fontColor=#333333;" vertex="1" parent="1">
          <mxGeometry x="1610" y="212.5" width="80" height="40" as="geometry" />
        </mxCell>
        <mxCell id="txF12JI0B_JZpHMLiGdl-27" value="id" style="text;html=1;align=center;verticalAlign=middle;resizable=0;points=[];autosize=1;strokeColor=none;fontSize=16;" vertex="1" parent="1">
          <mxGeometry x="1315" y="192.5" width="30" height="20" as="geometry" />
        </mxCell>
        <mxCell id="txF12JI0B_JZpHMLiGdl-28" value="name" style="text;html=1;align=center;verticalAlign=middle;resizable=0;points=[];autosize=1;strokeColor=none;fontSize=16;" vertex="1" parent="1">
          <mxGeometry x="1380" y="192.5" width="60" height="20" as="geometry" />
        </mxCell>
        <mxCell id="txF12JI0B_JZpHMLiGdl-29" value="balance" style="text;html=1;align=center;verticalAlign=middle;resizable=0;points=[];autosize=1;strokeColor=none;fontSize=16;" vertex="1" parent="1">
          <mxGeometry x="1455" y="192.5" width="70" height="20" as="geometry" />
        </mxCell>
        <mxCell id="txF12JI0B_JZpHMLiGdl-30" value="trx_id" style="text;html=1;align=center;verticalAlign=middle;resizable=0;points=[];autosize=1;strokeColor=none;fontSize=16;" vertex="1" parent="1">
          <mxGeometry x="1545" y="192.5" width="50" height="20" as="geometry" />
        </mxCell>
        <mxCell id="txF12JI0B_JZpHMLiGdl-31" value="roll_pointer" style="text;html=1;align=center;verticalAlign=middle;resizable=0;points=[];autosize=1;strokeColor=none;fontSize=16;" vertex="1" parent="1">
          <mxGeometry x="1610" y="192.5" width="90" height="20" as="geometry" />
        </mxCell>
        <mxCell id="txF12JI0B_JZpHMLiGdl-32" value="" style="ellipse;whiteSpace=wrap;html=1;aspect=fixed;fontSize=16;" vertex="1" parent="1">
          <mxGeometry x="1645" y="227.5" width="10" height="10" as="geometry" />
        </mxCell>
      </root>
    </mxGraphModel>
  </diagram>
</mxfile>
